<svg id="Ebene_1" data-name="Ebene 1" xmlns="http://www.w3.org/2000/svg" xmlns:xlink="http://www.w3.org/1999/xlink" viewBox="0 0 531.3 561.96"><defs><style>.cls-1,.cls-2{stroke:#3b3b3b;stroke-miterlimit:10;}.cls-1{fill:url(#Unbenannter_Verlauf_13);}.cls-2{fill:#fff;}</style><linearGradient id="Unbenannter_Verlauf_13" x1="296.04" y1="739.34" x2="296.04" y2="179.74" gradientUnits="userSpaceOnUse"><stop offset="0" stop-color="#7b6a58"/><stop offset="1" stop-color="#2fac66"/></linearGradient></defs><title>tree_random</title><path class="cls-1" d="M561.11,449.89l-8,1.47c-.17.89-.35,1.86-.57,3l-4.45-.26,2.15,4H545.8c.89,1.29,1.56,2.28,2.89,4.23l-5.09-2.83,3.75,11.35-13.63-7.44c-.16,1.54-.24,2.31-.35,3.41l-3.92-.83,4.75,7.12-1.31.12c.29,2.16.57,4.33.89,6.7l-12.49-7.69c-4,1.43-7.45-1.7-11.58-3.24-.1.95-.19,1.75-.29,2.66l-3.87-.47c.17,1.23.32,2.25.51,3.55l-5.15-2.1c-.55,3.15-4.16,4.37-3.72,7.89.05.41-1.23,1.36-1.92,1.38a2.8,2.8,0,0,1-2.07-1.26,37.1,37.1,0,0,1-1.95-4.41l-6.72,6.31-4.2-1.26,6.14,6-3.58,6h-2.47l.94,5.24-5.63-2,2.42,6.25L472.58,501c-.23,1.58-.45,3.11-.75,5.24l-5.67-3.15c.33,1.51.66,3,1.26,5.7l-7.88-6.43c-.56,2.94-1.1,5.74-1.64,8.57-6.46,1.83-7.72,1.25-9-4.47l-3.57,3c-.34-2.54-.59-4.45-1-7.32l-2.9,5a23.51,23.51,0,0,0-2.45-3.43,25.4,25.4,0,0,0-3.75-2.46c-.3,1.58-.53,2.76-.81,4.21l-3.59-.68c.62,2,1.12,3.63,1.8,5.81l-4.81-2.4c.57,3.13,1.06,5.85,1.44,7.95l-8.14,3.72c-.55-2.23-1-4.3-1.65-6.75l-3.24,1.4-.48-4.53L410,513.83c-.16-2-.29-3.62-.44-5.45l-4,1.58-6.43-8.71c-.66,2-1.21,3.68-2,6.21l-2.73-3.94c1.53,6.9-6.88,5.46-8.07,10.91-.65-1.68-1-2.46-1.25-3.19-1.3,1.53-2.49,3-4.17,4.94-.73-3-1.27-5.26-1.54-6.35-2.82.68-5.33,1.27-7.84,1.91a8.39,8.39,0,0,0-1.63.71c-23,11.39-33.85,23-34.58,51.83-.25,10.09,1.24,20.23,1.8,30.36.46,8.49.54,17,1.12,25.48.57,8.29,1.37,16.57,2.47,24.8.34,2.55,1.87,5,3.07,7.37q9.5,18.93,19.13,37.79c6.72,13.08,16.59,22.31,31.43,25.46,1.12.23,1.77,2.22,2.93,2.74,3.13,1.4,6.42,2.44,9.26,3.49h-8.77c.65,4-.89,4.77-4.54,3.57a28.46,28.46,0,0,0-7.91-.88c-4.44-.14-8.89.12-13.32-.12-3.63-.2-6.91-.16-10.14,2.17-1.87,1.35-4.69,1.39-7.54,2.14l10.32,9.74,0,1L348,735.6l-1.49,2.3-4.36-3.47c-1.16.44-2.52,1.51-3.43,1.21-5.29-1.74-10.17.22-15.26,1a14.17,14.17,0,0,1-13.67-5,4.26,4.26,0,0,0-4-.83c-5.59,2.68-11.2,4.42-17.58,4.21-3.86-.12-7.78,1.39-12.17,2.27.45-1.58.78-2.76,1.16-4.1-14,5.58-28.52,5.6-43.29,5.14l5-2.1-.13-.8c-1.08-.14-2.15-.3-3.24-.43-7.34-.89-14.66-2-22-2.6-4.37-.38-8.8-.07-13.21-.07L200,731c1.32-.68,2.61-1.43,4-2,7.92-3.44,15.89-6.79,23.79-10.28,8.73-3.86,15.42-10.23,20.67-18,13.31-19.77,21.05-41.73,23.92-65.26.92-7.55-.49-15.38-.8-23.09-.29-7.28-.62-14.57-.78-21.85-.17-8.09-3.22-13.86-11.37-16.73-10.89-3.83-16.23-12.68-20.14-23-3.09-8.17-7.11-16-10.93-23.87-1-2-2.74-3.56-4.57-5.85l-.87.13-4.44-9.4-4.89,2.71,2.57-5.29-8.87,4.29c1.34-2.51,2.33-4.36,3.65-6.85l-9.31,4.46-.51-.62,3.44-4.25-5.48.93,4.57-5.17-9.24,2.69L197,501.1l-3.53.5c.71-3,.71-3-4.29-4.87-.15,1.63-.3,3.21-.46,5l-4.27-1-2.63,4.53-6.8-6.24c-1,3.11-2,6.16-3.36,10.31l-4.23-7.17c-1.14,3.41-2.16,6.45-3.55,10.62l-4-5.63-4.5,2.91c-.18-2.52-.32-4.53-.52-7.21l-4.27,3.27c-.25-1.69-.46-3.17-.69-4.74-1.36.88-2.55,1.66-4.23,2.77l-.58-6.46-4.88,3.71-.45-4.91-6.38,4.6,2.5-12.6h-5.6l4.81-6.3-6.42.45,1.51-2.81-10.44,1.8-.75-3.82-8.15,6.41c-.35-3.11-.52-4.69-.69-6.24h-7.65l1.78-7.15-4,1.34,2-5.49-5.77,2.71v-4.39l-3.61.86-1.29-7.6-11.87,8.82-.62-.51c1.21-2.71,2.43-5.42,4-8.94L71.54,464.1l-1.23-1.44,3-5.26c-5.26-1.2-5.6-2.14-2.38-7.13l-6.1,1.35c2-3.88,3.68-7.35,5.59-11.16l-6-.5,8.92-5.5H67.77l3.67-3-2.62-1,.84-5.39-1.43-.3q-2.06,5.25-4.13,10.55c-4.7-2.63-4.7-2.63-1.37-12.47l-6,2.76v-5.52l-4.28,1c1.28-2.95,2.3-5.28,3.43-7.86L43.93,419.2l-.44-.92,9.11-9.56-.89-1-6.9,3.67,4.8-6.24-3.9-.18,1.76-4-6.81,3.16c1.27-3.1,2.21-5.39,3.14-7.68L35.06,400l-.61-1.14,5.2-8.38-.56-.6-3.84,1.84c-1-5.63,4-8.09,6.15-12.61l-9.7,2.77L31,380.73l11.27-9-.37-.58-6.24,1.57-1.36-1.57,6.6-4.37-4.61-4.41.5-1.38c7,1.33,14.12,2.8,19.46-4.66l-9.51,2.31-.47-1,7.57-6.22c-3.74,1.41-6.16.24-8.41-3.93l11.35-3.67-4.37-2.31L52.17,340l21.71-5.21c-2.53-7.11-9.25-6.25-16.51-7.3l7.14-4.32-12.06-6.34.35-1.16,5.72-.82L57,311.38h8.8l.58-1.25-4.91-3,.68-1.23,6.36-1.64-2.35-6.25,5.18,2.72-.5-5.45,4.79,3.24L77.51,296l2.21,3.81,1.64-4-9.29-3.51.1-.57,2.38.13.33-.58L69,288.94l3.61-.69-6.88-4.6,12.19-2.41-1.78-5.82,3.93,1.41.38-.54-8.19-6.5,7.5,1.33-3.24-4.62.38-.53L84,271.46l1.87-7L90.21,271c1.65-4.55.52-7.64-2-10.65-1.41-1.67-1.8-4.2-2.65-6.34l1.13-.65,5.62,1.95-1.76-6.5c3.46-2,5.65,4.77,8.77-.05l3.55,3.74,1.6-5.89,4.23,5.34c1-2.58,1.75-4.55,2.37-6.15,2,.68,3.82,1.38,5.68,1.9,2,.57,4.12,1,6.85,1.61l1.08,4.72,5.12-.53,1.13,8.4,4-2,.42,4.51,4.17-3.66,1.3,4,2.68-1.42c4.75,1.47,10.36,1.13,11.07,7.76-.18-3.84,3.08-7.88-2-10.49l5.55-1.84-.19-1.43,4,3.4c.8-1.83,1.55-3.57,2.8-6.42l2.49,5.24,4.22-4.88c.5,2.16.87,3.74,1.44,6.18l1.76-3.1,2.24,4,3-1.2c.13,1.48.25,2.89.35,3.92l6.37-1.07,4.8,4.68,1.39-1.8c-1.81-1-3.61-2-5.43-2.93-.2-.11-.57.09-.85.15,1-.49,2-1.43,2.94-1.36,1.53.11,3,.87,5.26,1.6l-4-6,3-.16-4.4-5.82,7.23,2.74.59-.75-4.54-5.37,2.5-1.71-2.58-2.47,2.81-1-8.89-3.1.12-1.09,6.47-.85-5.75-3,4.28-3.82L186,229c5-3.19,9.9-2.87,15,.42l-2-4.09,9.7.77.3-1.25-7-3.79,4.21-1.06-4.45-1.89,3.24-.82c-2-1.85-3.66-3.42-6-5.66l8.64,2.34-2.64-4.88c1.84-1.3,5.13,5.23,5.89-1.46l4.5,3.79c-.87-2.17-1.29-3.18-1.88-4.64l3.55,1.05v-7.16l.84-.4c1.23,1.71,2.46,3.42,3.89,5.39l3.49-6.28c1.44,2.44,2.5,4.25,3.69,6.28l1-1,7,3.3v-4.9l6.41,4c.43-1.51.8-2.81,1.26-4.47l3.84,2.18c1.29-3.22,2.52-6.31,3.88-9.72l4.14,5.6c1-2.72,1.72-4.85,2.47-7l.83,0c.37,3.1.73,6.2,1.18,10l3.88-4.43c-.56,2.15-1.06,4.09-1.77,6.85l5.6-3.59c.51,1.16,1,2.24,1.48,3.33l.86-.08c-.1-1.51-.19-3-.33-5.18l4.76.83c-1-3.33-2-6.75-3.37-11.51l5.13,3.53,1.05-3.1,3.59,4.6,1.78-5.34-2.68-3.25c5.71.73,10.37.41,11.78-6.73l2.36,5.74,3.64-4.12,2.77,6.73,2.59-2.83c.13.52.33,1.3.58,2.33l3.28-1.48c.15,1.29.29,2.48.42,3.67l.92.62c.79-1.43,1.59-2.85,2.39-4.28l.87.61c.12,1.12.24,2.24.39,3.66l6.38-4c-.73,2.86-1.2,4.71-1.72,6.8l6.49-.64L320.87,197l8.58-1.68-4,5.42h6l-2.39,5,3.88,4.34,3.68-5.9c3.59,3.76,6.91,7.34,10.37,10.77a2.41,2.41,0,0,0,2.32-.09,66.39,66.39,0,0,0,4.38-7.22c.61-1.15.55-2.65,1.15-3.81a3.45,3.45,0,0,1,2.2-1.82,3,3,0,0,1,2.32,1.56c1,2.27,1.63,4.68,2.5,7.3l3.93-1.58c-.86,2.34-5.46,4.05-1.05,6.88l6-9.34c4.61,4.88-.54,7.51-1.77,11.22l4.7,1-3.11,5.21.36,1.13,20.78-7.22c1.07,2.77,1.07,2.77,11.44,3.55,1.25,2.1,2.39,4,3.21,5.39l6.88-2.44c.09-1.12.27-3.25.49-5.88l11.15,2c0,.46,0,.92,0,1.37l3.52-3.77c2.47,2.95,5.17,6.16,8.15,9.73l4.3-4.56c.76,2.73,1.38,5,1.93,6.94l11.54-6.82c-.28,2.92-1.81,5.82,1.59,8,.6.39-.39,3.28-.68,5.3l3.27,1.29-5.83,5,.35.62,4.14-1.56.52.66-10.4,8.65c4.91,1,10.21-1.51,14.47-6.69l1.82,4L476.1,242c-.62,3-1.09,5.21-1.65,7.87l4.69-.52c.95,2.73,1.78,5.14,2.78,8l9.53-3c-.34,2.91-.6,5.06-.92,7.76L504.35,259c1.42,5-2.18,6.41-5.93,8.54,1.18.26,1.74.58,2.11.43,4.48-1.7,6.09,3.3,9.52,4.11.42.1.95,2.11.58,2.67a4.79,4.79,0,0,1-2.88,1.73c-3,.61-6,.95-10.11,1.55,2.09,1.94,3.46,3.19,5,4.57l-2.67.81,6.42,5.68c-3.69,1.46-9.47.87-6.42,7.72L495,298.65c.06.82.12,1.64.23,3.05-7.47-2.32-7.48,6.33-12.65,7.53,9,.8,9.71.46,13.55-6.51l3.67,5.17,5.23.38,0,.36,10.43-1-1.33,5.95,5.91-.84c-2.85,5.94-2.5,6.38,7.16,8.73l-4.56,5.42,4.37,1c-2.86,5.44-8.25,2.35-12.13,4,2.61,2.16,3.3,2.16,9.9.94,3.49-.65,7-1.06,10.72-1.6,1.65,4.52-3,4.61-4.47,7.24l7-.88L533.43,341l7.27,1.67-3.4,4.07.84.77-8.93,1.4,7.5,2.91c-4.88,4.21-8.65-.14-13.35-1.62l-1.42,6.06c2.69.42,5,.35,6.94,1.22s3.54,2.7,5.28,4.11l-4.78,2.91,4.48.62,0,1.21H526c.94,1.61,1.71,2.92,2.31,4l-7.74,4.61,5.34,1.57c-.49,1.12-.87,2-1.35,3.05l6.55,1.88L530,384l10.84,2.52-2.69,4.44,3.15,3.37L536.22,397l5.37,4.22L533.28,403c1.07,3.28,1.07,3.28,9.71,3l-3.85,4.24,12,1.29c-1.36,1.53-2.32,2.62-3.47,3.9l3.48,1.92-3.63,2.44,8.42,2.76c-1.12,2.5-2.14,4.79-3.2,7.14,4.7,3.42,4.88,5.74,0,9.21,2.8,3.38,5.56,6.72,8.33,10.05Z" transform="translate(-30.31 -178.01)"/><path class="cls-2" d="M252.65,483.49c0,3.56-.36,36.93-.36,40.21l4.2-.79c.18.89.39,2,.69,3.41l5.84-4.93c1.33,6.88,2.67,13.78,4.07,21.06-5.77-.89-9.82-2.7-12.11-7.58a95.07,95.07,0,0,0-5.58-9.6C242.11,506.69,247.91,487,252.65,483.49Z" transform="translate(-30.31 -178.01)"/><path class="cls-2" d="M303.22,708s3.35-.47,4-5.86,0-21.09,0-21.09.47,7.5-5.15,8,4-8,4-8l1.48-11.47h1.56v19.21s6.09-1.18,6.8,2.81-6.56-1.41-6.56-1.41l.93,12.18s4.59,5.9,6.47,5.66-4.84.88-4.84.88l-.45,3.54s-1.25-3.52-3.32-2.82a2.19,2.19,0,0,0-1.37,2.82l-2.11-2.35s-3.4-.93-5.13-.13C298.49,710.46,303.22,708,303.22,708Z" transform="translate(-30.31 -178.01)"/></svg>